<svg xmlns="http://www.w3.org/2000/svg" xmlns:xlink="http://www.w3.org/1999/xlink" width="500" zoomAndPan="magnify" viewBox="0 0 375 374.999991" height="500" preserveAspectRatio="xMidYMid meet" version="1.0"><defs><g/><clipPath id="9db2be60f0"><path d="M 59.621094 161 L 202.121094 161 L 202.121094 241.523438 L 59.621094 241.523438 Z M 59.621094 161 " clip-rule="nonzero"/></clipPath><clipPath id="d4fa3485c9"><path d="M 128 133.523438 L 144 133.523438 L 144 143 L 128 143 Z M 128 133.523438 " clip-rule="nonzero"/></clipPath></defs><g clip-path="url(#9db2be60f0)"><path fill="#ff3755" d="M 130.34375 161.53125 C 126.910156 163.085938 113.898438 159.238281 120.6875 169.445312 C 127.476562 179.652344 128.980469 209.820312 102.078125 212.714844 C 77.660156 215.328125 62.347656 222.949219 59.726562 239.652344 C 59.726562 239.652344 63.910156 223.480469 93.847656 226.726562 C 123.789062 229.976562 127.789062 236.558594 133.1875 219.703125 C 138.582031 202.847656 143.21875 220.785156 152.632812 231.300781 C 162.046875 241.820312 193.53125 247.0625 186.277344 232.847656 C 179.023438 218.628906 202.019531 225.890625 202.019531 225.890625 C 202.019531 225.890625 194.917969 213.519531 167.128906 216.457031 C 139.339844 219.394531 129.121094 194.191406 132.601562 183.550781 C 136.082031 172.90625 153.816406 168.195312 130.34375 161.53125 Z M 130.34375 161.53125 " fill-opacity="1" fill-rule="nonzero"/></g><path fill="#303d46" d="M 124.585938 147.046875 C 123.953125 146.757812 123.34375 146.433594 122.738281 146.089844 C 122.136719 145.746094 121.546875 145.371094 120.972656 144.972656 C 120.390625 144.570312 119.832031 144.140625 119.296875 143.683594 C 118.75 143.214844 118.246094 142.707031 117.78125 142.160156 C 117.535156 141.875 117.304688 141.574219 117.097656 141.261719 C 116.878906 140.933594 116.6875 140.59375 116.523438 140.234375 C 116.359375 139.851562 116.242188 139.453125 116.175781 139.039062 C 116.101562 138.597656 116.101562 138.15625 116.175781 137.710938 C 116.257812 137.261719 116.40625 136.835938 116.628906 136.4375 C 117.117188 135.546875 117.847656 134.960938 118.824219 134.683594 C 119.265625 134.558594 119.710938 134.5 120.167969 134.507812 C 120.992188 134.539062 121.792969 134.695312 122.566406 134.988281 C 123.289062 135.25 123.980469 135.578125 124.644531 135.96875 C 125.28125 136.347656 125.898438 136.765625 126.484375 137.21875 C 127.058594 137.667969 127.628906 138.144531 128.148438 138.648438 C 129.207031 139.648438 130.167969 140.734375 131.03125 141.90625 C 131.90625 143.074219 132.671875 144.308594 133.335938 145.605469 C 133.5 145.929688 133.660156 146.257812 133.8125 146.589844 C 133.890625 146.753906 133.960938 146.921875 134.03125 147.089844 L 134.234375 147.566406 C 134.496094 148.171875 134.773438 148.769531 135.0625 149.359375 C 135.640625 150.542969 136.285156 151.691406 136.996094 152.800781 C 137.699219 153.902344 138.476562 154.945312 139.328125 155.933594 C 140.152344 156.902344 141.074219 157.761719 142.101562 158.511719 C 142.585938 158.863281 143.105469 159.160156 143.65625 159.398438 C 144.164062 159.628906 144.695312 159.757812 145.25 159.792969 C 145.777344 159.8125 146.277344 159.707031 146.746094 159.472656 C 146.996094 159.351562 147.226562 159.203125 147.4375 159.027344 C 147.636719 158.863281 147.804688 158.671875 147.941406 158.453125 C 148.09375 158.210938 148.21875 157.953125 148.316406 157.683594 C 148.421875 157.390625 148.507812 157.09375 148.566406 156.789062 C 148.691406 156.144531 148.757812 155.492188 148.773438 154.835938 C 148.796875 153.464844 148.710938 152.101562 148.507812 150.75 C 148.796875 151.390625 149.039062 152.046875 149.238281 152.722656 C 149.445312 153.398438 149.605469 154.082031 149.722656 154.78125 C 149.84375 155.496094 149.894531 156.21875 149.875 156.945312 C 149.867188 157.742188 149.707031 158.507812 149.394531 159.238281 C 149.214844 159.640625 148.976562 160.003906 148.679688 160.328125 C 148.394531 160.628906 148.078125 160.898438 147.730469 161.128906 C 146.992188 161.601562 146.183594 161.855469 145.304688 161.890625 C 144.472656 161.933594 143.664062 161.820312 142.871094 161.550781 C 142.136719 161.300781 141.433594 160.972656 140.769531 160.5625 C 140.449219 160.367188 140.128906 160.160156 139.828125 159.941406 C 139.53125 159.71875 139.230469 159.496094 138.945312 159.257812 C 138.382812 158.789062 137.84375 158.289062 137.335938 157.761719 C 136.828125 157.234375 136.355469 156.683594 135.90625 156.125 C 135.457031 155.5625 135.019531 154.976562 134.613281 154.390625 C 134.207031 153.804688 133.820312 153.191406 133.457031 152.574219 C 133.089844 151.957031 132.742188 151.328125 132.417969 150.691406 C 132.089844 150.050781 131.789062 149.402344 131.503906 148.746094 L 131.300781 148.273438 L 131.105469 147.832031 C 130.972656 147.542969 130.820312 147.257812 130.6875 146.972656 C 130.101562 145.8125 129.433594 144.703125 128.683594 143.640625 C 128.304688 143.113281 127.910156 142.597656 127.5 142.101562 C 127.082031 141.605469 126.65625 141.117188 126.203125 140.667969 C 125.75 140.21875 125.285156 139.765625 124.796875 139.347656 C 124.316406 138.9375 123.8125 138.554688 123.289062 138.203125 C 122.78125 137.859375 122.246094 137.5625 121.691406 137.304688 C 121.183594 137.066406 120.652344 136.914062 120.09375 136.847656 C 119.859375 136.820312 119.628906 136.824219 119.394531 136.863281 C 119.191406 136.898438 119 136.96875 118.824219 137.078125 C 118.644531 137.195312 118.496094 137.34375 118.371094 137.519531 C 118.238281 137.707031 118.136719 137.90625 118.066406 138.121094 C 117.933594 138.636719 117.949219 139.144531 118.113281 139.648438 C 118.308594 140.238281 118.578125 140.792969 118.925781 141.304688 C 119.667969 142.414062 120.527344 143.429688 121.5 144.347656 C 122.480469 145.300781 123.507812 146.199219 124.585938 147.046875 Z M 124.585938 147.046875 " fill-opacity="1" fill-rule="nonzero"/><path fill="#303d46" d="M 125.554688 154.589844 C 125.894531 155.0625 126.261719 155.507812 126.664062 155.925781 C 127.054688 156.347656 127.480469 156.726562 127.941406 157.074219 C 128.382812 157.40625 128.867188 157.664062 129.390625 157.847656 C 129.878906 158.019531 130.378906 158.046875 130.882812 157.925781 C 131.125 157.855469 131.359375 157.757812 131.585938 157.640625 C 131.816406 157.515625 132.042969 157.375 132.253906 157.222656 C 132.691406 156.894531 133.097656 156.535156 133.472656 156.136719 C 133.855469 155.738281 134.21875 155.316406 134.558594 154.878906 C 134.726562 154.65625 134.894531 154.433594 135.058594 154.207031 L 135.292969 153.867188 C 135.367188 153.753906 135.445312 153.628906 135.507812 153.53125 L 137.011719 154.609375 C 136.90625 154.746094 136.808594 154.855469 136.707031 154.972656 L 136.398438 155.300781 C 136.191406 155.523438 135.980469 155.738281 135.765625 155.953125 C 135.332031 156.378906 134.878906 156.785156 134.402344 157.164062 C 133.917969 157.550781 133.40625 157.894531 132.863281 158.195312 C 132.585938 158.347656 132.300781 158.480469 132.003906 158.589844 C 131.695312 158.703125 131.378906 158.78125 131.054688 158.824219 L 130.800781 158.847656 C 130.714844 158.847656 130.628906 158.847656 130.546875 158.847656 C 130.378906 158.839844 130.214844 158.820312 130.050781 158.785156 C 129.734375 158.722656 129.429688 158.621094 129.140625 158.480469 C 128.589844 158.203125 128.09375 157.847656 127.652344 157.414062 C 127.226562 157 126.839844 156.550781 126.496094 156.070312 C 126.148438 155.597656 125.835938 155.105469 125.554688 154.589844 Z M 125.554688 154.589844 " fill-opacity="1" fill-rule="nonzero"/><path fill="#303d46" d="M 136.523438 154.53125 C 136.523438 154.53125 131.832031 160.128906 135.988281 166.742188 C 140.140625 173.355469 136.273438 176.007812 136.273438 176.007812 C 136.273438 176.007812 140.824219 173.933594 138.464844 167.03125 C 138.464844 167.03125 141.207031 168.238281 141.066406 171.761719 C 140.921875 175.28125 132.199219 178.230469 135.632812 184.554688 C 135.523438 183.671875 135.617188 182.8125 135.902344 181.972656 C 136.191406 181.136719 136.644531 180.402344 137.269531 179.773438 C 137.269531 179.773438 133.707031 184.261719 140.59375 188.558594 C 147.480469 192.855469 144.90625 196.566406 144.90625 196.566406 C 144.90625 196.566406 148.375 192.804688 143.652344 188.023438 C 138.933594 183.242188 144.109375 177.953125 146.117188 176.023438 C 144.722656 177.996094 144.3125 180.628906 144.3125 180.628906 C 144.3125 180.628906 146.375 176.148438 154.433594 169.742188 C 160.550781 164.871094 150.90625 164.246094 142.808594 159.46875 C 132.234375 153.21875 128.074219 139.144531 128.074219 139.144531 C 128.074219 139.144531 134.238281 151.996094 136.523438 154.53125 Z M 136.523438 154.53125 " fill-opacity="1" fill-rule="nonzero"/><g clip-path="url(#d4fa3485c9)"><path fill="#303d46" d="M 128.4375 135.65625 C 128.761719 135.382812 129.105469 135.140625 129.472656 134.9375 C 129.84375 134.726562 130.226562 134.539062 130.617188 134.378906 C 131.40625 134.054688 132.222656 133.824219 133.0625 133.683594 C 133.273438 133.648438 133.488281 133.617188 133.703125 133.59375 C 133.914062 133.566406 134.128906 133.554688 134.34375 133.539062 C 134.554688 133.527344 134.769531 133.519531 134.992188 133.539062 L 135.320312 133.539062 L 135.648438 133.558594 C 135.761719 133.558594 135.867188 133.574219 135.976562 133.585938 L 136.308594 133.625 C 136.523438 133.65625 136.746094 133.691406 136.960938 133.738281 C 137.179688 133.785156 137.394531 133.839844 137.609375 133.894531 C 137.824219 133.949219 138.035156 134.023438 138.242188 134.101562 C 138.453125 134.183594 138.65625 134.265625 138.863281 134.351562 C 139.070312 134.4375 139.269531 134.539062 139.464844 134.636719 C 139.859375 134.851562 140.234375 135.09375 140.589844 135.367188 C 140.949219 135.640625 141.28125 135.9375 141.585938 136.265625 C 141.894531 136.589844 142.171875 136.9375 142.417969 137.308594 C 142.910156 138.03125 143.257812 138.816406 143.460938 139.664062 C 143.667969 140.511719 143.71875 141.371094 143.609375 142.238281 C 143.46875 141.84375 143.324219 141.460938 143.164062 141.089844 C 143.003906 140.722656 142.828125 140.371094 142.632812 140.035156 C 142.441406 139.699219 142.230469 139.378906 142.003906 139.066406 C 141.886719 138.917969 141.773438 138.765625 141.652344 138.625 C 141.527344 138.480469 141.402344 138.335938 141.28125 138.207031 C 139.960938 136.859375 138.386719 135.96875 136.558594 135.527344 C 136.199219 135.4375 135.832031 135.367188 135.464844 135.316406 C 134.707031 135.210938 133.945312 135.160156 133.179688 135.160156 C 132.394531 135.15625 131.613281 135.199219 130.832031 135.28125 C 130.027344 135.363281 129.230469 135.492188 128.4375 135.65625 Z M 128.4375 135.65625 " fill-opacity="1" fill-rule="nonzero"/></g><path fill="#303d46" d="M 134.277344 137.578125 C 134.644531 137.554688 135.007812 137.566406 135.375 137.613281 C 135.742188 137.652344 136.105469 137.714844 136.46875 137.804688 C 137.199219 137.984375 137.898438 138.257812 138.558594 138.617188 C 139.234375 138.988281 139.84375 139.445312 140.386719 139.992188 C 140.929688 140.546875 141.382812 141.171875 141.738281 141.863281 C 141.917969 142.214844 142.066406 142.582031 142.179688 142.960938 C 142.292969 143.335938 142.367188 143.714844 142.40625 144.105469 C 142.476562 144.890625 142.402344 145.660156 142.1875 146.417969 C 141.976562 147.152344 141.664062 147.835938 141.25 148.476562 C 141.046875 148.789062 140.824219 149.085938 140.582031 149.367188 C 140.460938 149.507812 140.335938 149.652344 140.207031 149.773438 C 140.078125 149.910156 139.945312 150.039062 139.800781 150.15625 C 140.171875 149.542969 140.488281 148.898438 140.753906 148.230469 C 141.019531 147.585938 141.207031 146.914062 141.324219 146.226562 C 141.4375 145.5625 141.445312 144.898438 141.351562 144.234375 C 141.304688 143.910156 141.230469 143.589844 141.125 143.28125 C 141.027344 142.964844 140.898438 142.664062 140.746094 142.371094 C 140.441406 141.769531 140.066406 141.21875 139.621094 140.714844 C 139.160156 140.203125 138.648438 139.753906 138.085938 139.367188 C 137.515625 138.960938 136.914062 138.613281 136.277344 138.324219 C 135.628906 138.023438 134.964844 137.773438 134.277344 137.578125 Z M 134.277344 137.578125 " fill-opacity="1" fill-rule="nonzero"/><path fill="#303d46" d="M 124.199219 154.484375 C 124.238281 154.671875 124.261719 154.863281 124.269531 155.058594 C 124.28125 155.253906 124.28125 155.453125 124.269531 155.648438 C 124.152344 156.929688 123.609375 157.996094 122.640625 158.84375 C 122.488281 158.988281 122.324219 159.121094 122.152344 159.238281 C 121.980469 159.359375 121.804688 159.46875 121.628906 159.566406 C 121.273438 159.769531 120.921875 159.933594 120.59375 160.109375 C 120.289062 160.273438 120.003906 160.460938 119.738281 160.683594 C 119.503906 160.882812 119.316406 161.121094 119.183594 161.398438 C 119.046875 161.683594 118.964844 161.984375 118.933594 162.300781 C 118.890625 162.644531 118.882812 162.984375 118.90625 163.328125 C 118.964844 164.054688 119.078125 164.773438 119.25 165.484375 C 119.417969 166.203125 119.625 166.914062 119.851562 167.648438 C 119.960938 168.011719 120.078125 168.367188 120.199219 168.730469 L 120.386719 169.28125 C 120.449219 169.464844 120.507812 169.65625 120.566406 169.851562 C 121.539062 172.914062 121.882812 176.042969 121.597656 179.242188 C 121.445312 180.820312 121.097656 182.359375 120.566406 183.855469 C 120.300781 184.59375 119.980469 185.308594 119.609375 186.003906 C 119.25 186.699219 118.820312 187.347656 118.320312 187.949219 C 119.015625 186.582031 119.527344 185.148438 119.851562 183.652344 C 120.183594 182.175781 120.367188 180.683594 120.398438 179.171875 C 120.449219 176.148438 120.011719 173.195312 119.09375 170.316406 L 118.921875 169.78125 L 118.742188 169.234375 C 118.617188 168.859375 118.5 168.488281 118.390625 168.109375 C 118.167969 167.355469 117.96875 166.589844 117.816406 165.816406 C 117.648438 165.019531 117.550781 164.210938 117.53125 163.398438 C 117.527344 162.96875 117.5625 162.542969 117.632812 162.117188 C 117.714844 161.664062 117.871094 161.238281 118.097656 160.835938 C 118.21875 160.628906 118.359375 160.4375 118.519531 160.261719 C 118.675781 160.09375 118.851562 159.941406 119.039062 159.808594 C 119.390625 159.566406 119.761719 159.367188 120.160156 159.210938 C 120.902344 158.902344 121.589844 158.691406 122.160156 158.277344 C 122.460938 158.070312 122.730469 157.832031 122.972656 157.566406 C 123.09375 157.433594 123.210938 157.292969 123.316406 157.144531 C 123.421875 156.996094 123.519531 156.839844 123.601562 156.679688 C 123.789062 156.355469 123.929688 156.011719 124.027344 155.648438 C 124.136719 155.269531 124.191406 154.878906 124.199219 154.484375 Z M 124.199219 154.484375 " fill-opacity="1" fill-rule="nonzero"/><g fill="#303d46" fill-opacity="1"><g transform="translate(161.737172, 183.239813)"><g><path d="M 1.09375 6.359375 C 1.445312 6.359375 1.785156 6.207031 2.109375 5.90625 C 2.429688 5.601562 2.722656 5.253906 2.984375 4.859375 C 3.253906 4.472656 3.453125 4.148438 3.578125 3.890625 C 4.035156 2.960938 4.332031 2.179688 4.46875 1.546875 C 4.613281 0.910156 4.742188 0.5 4.859375 0.3125 C 4.765625 0.320312 4.617188 0.398438 4.421875 0.546875 C 4.234375 0.703125 4.046875 0.859375 3.859375 1.015625 C 3.679688 1.179688 3.554688 1.3125 3.484375 1.40625 C 3.210938 1.675781 2.898438 2 2.546875 2.375 C 2.203125 2.757812 1.867188 3.171875 1.546875 3.609375 C 1.234375 4.054688 0.992188 4.503906 0.828125 4.953125 C 0.660156 5.410156 0.625 5.859375 0.71875 6.296875 C 0.8125 6.304688 0.875 6.316406 0.90625 6.328125 C 0.9375 6.347656 1 6.359375 1.09375 6.359375 Z M 12.71875 -5.09375 C 12.78125 -5.320312 12.828125 -5.570312 12.859375 -5.84375 C 12.898438 -6.113281 12.9375 -6.363281 12.96875 -6.59375 C 13.0625 -7.28125 13.179688 -8.0625 13.328125 -8.9375 C 13.484375 -9.8125 13.644531 -10.679688 13.8125 -11.546875 C 13.988281 -12.421875 14.148438 -13.203125 14.296875 -13.890625 C 14.347656 -14.109375 14.40625 -14.394531 14.46875 -14.75 C 14.53125 -15.113281 14.582031 -15.5 14.625 -15.90625 C 14.675781 -16.320312 14.691406 -16.707031 14.671875 -17.0625 C 14.660156 -17.425781 14.59375 -17.710938 14.46875 -17.921875 C 14.132812 -17.898438 13.773438 -17.726562 13.390625 -17.40625 C 13.003906 -17.09375 12.617188 -16.691406 12.234375 -16.203125 C 11.847656 -15.722656 11.484375 -15.21875 11.140625 -14.6875 C 10.796875 -14.15625 10.488281 -13.660156 10.21875 -13.203125 C 9.945312 -12.742188 9.75 -12.378906 9.625 -12.109375 L 8.65625 -10 C 8.425781 -9.507812 8.191406 -8.925781 7.953125 -8.25 C 7.710938 -7.582031 7.488281 -6.90625 7.28125 -6.21875 C 7.082031 -5.53125 6.910156 -4.921875 6.765625 -4.390625 C 6.734375 -4.210938 6.671875 -3.957031 6.578125 -3.625 C 6.492188 -3.300781 6.410156 -2.976562 6.328125 -2.65625 C 6.253906 -2.34375 6.207031 -2.109375 6.1875 -1.953125 C 6.332031 -2.003906 6.472656 -2.078125 6.609375 -2.171875 C 6.742188 -2.265625 6.875 -2.351562 7 -2.4375 L 9.34375 -3.71875 C 9.707031 -3.894531 10.109375 -4.082031 10.546875 -4.28125 C 10.992188 -4.488281 11.414062 -4.664062 11.8125 -4.8125 C 11.976562 -4.84375 12.144531 -4.878906 12.3125 -4.921875 C 12.476562 -4.972656 12.613281 -5.03125 12.71875 -5.09375 Z M 0.953125 7.171875 C 0.585938 7.171875 0.296875 7.03125 0.078125 6.75 C -0.128906 6.476562 -0.234375 6.148438 -0.234375 5.765625 C -0.222656 5.242188 -0.0664062 4.691406 0.234375 4.109375 C 0.535156 3.523438 0.910156 2.957031 1.359375 2.40625 C 1.816406 1.851562 2.285156 1.335938 2.765625 0.859375 C 3.253906 0.378906 3.691406 -0.015625 4.078125 -0.328125 C 4.410156 -0.597656 4.65625 -0.789062 4.8125 -0.90625 C 4.96875 -1.019531 5.078125 -1.125 5.140625 -1.21875 C 5.203125 -1.320312 5.257812 -1.488281 5.3125 -1.71875 C 5.582031 -2.9375 5.90625 -4.207031 6.28125 -5.53125 C 6.65625 -6.863281 7.09375 -8.179688 7.59375 -9.484375 C 8.09375 -10.785156 8.660156 -12.03125 9.296875 -13.21875 C 9.941406 -14.414062 10.65625 -15.488281 11.4375 -16.4375 C 11.613281 -16.664062 11.863281 -16.957031 12.1875 -17.3125 C 12.507812 -17.664062 12.863281 -17.984375 13.25 -18.265625 C 13.644531 -18.546875 14.023438 -18.6875 14.390625 -18.6875 C 14.804688 -18.6875 15.082031 -18.550781 15.21875 -18.28125 C 15.363281 -18.007812 15.441406 -17.695312 15.453125 -17.34375 C 15.472656 -17 15.484375 -16.695312 15.484375 -16.4375 C 15.484375 -16.132812 15.4375 -15.675781 15.34375 -15.0625 C 15.257812 -14.457031 15.15625 -13.769531 15.03125 -13 C 14.90625 -12.238281 14.765625 -11.460938 14.609375 -10.671875 C 14.460938 -9.878906 14.328125 -9.144531 14.203125 -8.46875 C 14.085938 -7.789062 14 -7.238281 13.9375 -6.8125 C 13.90625 -6.5625 13.867188 -6.332031 13.828125 -6.125 C 13.785156 -5.914062 13.765625 -5.675781 13.765625 -5.40625 C 14.035156 -5.40625 14.28125 -5.425781 14.5 -5.46875 C 14.71875 -5.519531 14.976562 -5.546875 15.28125 -5.546875 C 15.570312 -5.546875 15.765625 -5.472656 15.859375 -5.328125 C 15.960938 -5.191406 15.984375 -5.046875 15.921875 -4.890625 C 15.859375 -4.742188 15.738281 -4.671875 15.5625 -4.671875 C 15.351562 -4.671875 15.269531 -4.691406 15.3125 -4.734375 C 15.351562 -4.773438 15.304688 -4.796875 15.171875 -4.796875 C 15.109375 -4.796875 14.988281 -4.785156 14.8125 -4.765625 C 14.644531 -4.742188 14.398438 -4.703125 14.078125 -4.640625 C 13.859375 -4.597656 13.722656 -4.550781 13.671875 -4.5 C 13.628906 -4.457031 13.59375 -4.304688 13.5625 -4.046875 L 12.421875 8.3125 C 12.421875 8.664062 12.40625 9.007812 12.375 9.34375 C 12.351562 9.6875 12.34375 10.066406 12.34375 10.484375 C 12.34375 10.960938 12.359375 11.347656 12.390625 11.640625 C 12.421875 11.929688 12.414062 12.148438 12.375 12.296875 C 12.332031 12.441406 12.195312 12.515625 11.96875 12.515625 C 11.789062 12.515625 11.65625 12.367188 11.5625 12.078125 C 11.476562 11.796875 11.421875 11.453125 11.390625 11.046875 C 11.359375 10.640625 11.34375 10.25 11.34375 9.875 C 11.351562 9.5 11.367188 9.222656 11.390625 9.046875 C 11.390625 8.859375 11.398438 8.71875 11.421875 8.625 C 11.453125 8.53125 11.46875 8.378906 11.46875 8.171875 C 11.46875 7.890625 11.484375 7.53125 11.515625 7.09375 C 11.546875 6.65625 11.578125 6.203125 11.609375 5.734375 C 11.640625 5.265625 11.660156 4.847656 11.671875 4.484375 L 12.421875 -2.484375 C 12.453125 -2.796875 12.484375 -3.078125 12.515625 -3.328125 C 12.554688 -3.585938 12.578125 -3.882812 12.578125 -4.21875 C 12.359375 -4.101562 12.066406 -3.984375 11.703125 -3.859375 C 11.335938 -3.742188 10.941406 -3.578125 10.515625 -3.359375 C 10.035156 -3.117188 9.644531 -2.925781 9.34375 -2.78125 C 9.050781 -2.644531 8.796875 -2.507812 8.578125 -2.375 C 8.359375 -2.25 8.113281 -2.101562 7.84375 -1.9375 C 7.582031 -1.769531 7.238281 -1.550781 6.8125 -1.28125 C 6.78125 -1.269531 6.695312 -1.21875 6.5625 -1.125 C 6.425781 -1.039062 6.296875 -0.953125 6.171875 -0.859375 C 6.054688 -0.765625 5.992188 -0.707031 5.984375 -0.6875 C 5.929688 -0.644531 5.851562 -0.421875 5.75 -0.015625 C 5.644531 0.378906 5.503906 0.875 5.328125 1.46875 C 5.160156 2.0625 4.945312 2.6875 4.6875 3.34375 C 4.4375 4.007812 4.128906 4.628906 3.765625 5.203125 C 3.410156 5.785156 3 6.257812 2.53125 6.625 C 2.0625 6.988281 1.535156 7.171875 0.953125 7.171875 Z M 0.953125 7.171875 "/></g></g></g><g fill="#303d46" fill-opacity="1"><g transform="translate(178.891699, 183.239813)"><g><path d="M 0.6875 9.5625 C 1.144531 9.5625 1.554688 9.425781 1.921875 9.15625 C 2.296875 8.882812 2.617188 8.554688 2.890625 8.171875 C 3.171875 7.785156 3.40625 7.425781 3.59375 7.09375 C 3.769531 6.757812 3.960938 6.28125 4.171875 5.65625 C 4.390625 5.039062 4.59375 4.375 4.78125 3.65625 C 4.976562 2.9375 5.144531 2.253906 5.28125 1.609375 C 5.414062 0.960938 5.5 0.457031 5.53125 0.09375 C 5.332031 0.207031 5.15625 0.328125 5 0.453125 L 2.671875 2.53125 C 2.609375 2.59375 2.539062 2.664062 2.46875 2.75 C 2.40625 2.84375 2.328125 2.925781 2.234375 3 C 1.859375 3.382812 1.519531 3.765625 1.21875 4.140625 C 0.914062 4.523438 0.613281 4.945312 0.3125 5.40625 C 0.164062 5.613281 0.015625 5.875 -0.140625 6.1875 C -0.296875 6.507812 -0.425781 6.847656 -0.53125 7.203125 C -0.632812 7.566406 -0.675781 7.921875 -0.65625 8.265625 C -0.632812 8.617188 -0.503906 8.921875 -0.265625 9.171875 C -0.0546875 9.429688 0.257812 9.5625 0.6875 9.5625 Z M 1.234375 -2.09375 C 1.472656 -2.21875 1.75 -2.46875 2.0625 -2.84375 C 2.382812 -3.21875 2.71875 -3.660156 3.0625 -4.171875 C 3.414062 -4.691406 3.757812 -5.222656 4.09375 -5.765625 C 4.425781 -6.316406 4.734375 -6.828125 5.015625 -7.296875 C 5.296875 -7.765625 5.515625 -8.144531 5.671875 -8.4375 C 5.859375 -8.75 5.988281 -8.957031 6.0625 -9.0625 C 6.132812 -9.164062 6.296875 -9.21875 6.546875 -9.21875 C 6.679688 -9.21875 6.78125 -9.125 6.84375 -8.9375 C 6.90625 -8.757812 6.953125 -8.539062 6.984375 -8.28125 C 7.015625 -8.019531 7.03125 -7.769531 7.03125 -7.53125 C 7.03125 -7.289062 7.03125 -7.109375 7.03125 -6.984375 L 7.03125 -5.140625 C 7.03125 -4.742188 7.007812 -4.320312 6.96875 -3.875 C 6.925781 -3.4375 6.890625 -3.023438 6.859375 -2.640625 C 6.828125 -2.265625 6.8125 -1.960938 6.8125 -1.734375 L 10.21875 -3.71875 C 10.300781 -3.757812 10.46875 -3.867188 10.71875 -4.046875 C 10.976562 -4.222656 11.191406 -4.3125 11.359375 -4.3125 C 11.503906 -4.3125 11.578125 -4.222656 11.578125 -4.046875 C 11.578125 -3.941406 11.445312 -3.789062 11.1875 -3.59375 C 10.925781 -3.40625 10.644531 -3.226562 10.34375 -3.0625 C 10.050781 -2.90625 9.859375 -2.796875 9.765625 -2.734375 C 9.273438 -2.460938 8.785156 -2.171875 8.296875 -1.859375 C 7.816406 -1.554688 7.347656 -1.242188 6.890625 -0.921875 C 6.773438 -0.847656 6.710938 -0.78125 6.703125 -0.71875 C 6.703125 -0.664062 6.679688 -0.550781 6.640625 -0.375 C 6.535156 0.394531 6.378906 1.269531 6.171875 2.25 C 5.960938 3.238281 5.707031 4.203125 5.40625 5.140625 C 5.101562 6.078125 4.753906 6.863281 4.359375 7.5 C 4.140625 7.9375 3.84375 8.363281 3.46875 8.78125 C 3.09375 9.195312 2.675781 9.546875 2.21875 9.828125 C 1.757812 10.109375 1.265625 10.25 0.734375 10.25 C 0.148438 10.25 -0.335938 10.046875 -0.734375 9.640625 C -1.128906 9.242188 -1.328125 8.691406 -1.328125 7.984375 C -1.328125 7.460938 -1.191406 6.898438 -0.921875 6.296875 C -0.660156 5.691406 -0.304688 5.070312 0.140625 4.4375 C 0.597656 3.8125 1.085938 3.210938 1.609375 2.640625 C 2.140625 2.066406 2.664062 1.546875 3.1875 1.078125 C 3.71875 0.609375 4.1875 0.222656 4.59375 -0.078125 C 4.675781 -0.148438 4.75 -0.207031 4.8125 -0.25 C 4.875 -0.289062 4.953125 -0.34375 5.046875 -0.40625 C 5.273438 -0.59375 5.4375 -0.722656 5.53125 -0.796875 C 5.632812 -0.867188 5.695312 -1.007812 5.71875 -1.21875 C 5.8125 -2.03125 5.894531 -2.773438 5.96875 -3.453125 C 6.050781 -4.140625 6.113281 -4.84375 6.15625 -5.5625 C 6.195312 -6.28125 6.21875 -7.09375 6.21875 -8 C 6.164062 -7.96875 6.03125 -7.78125 5.8125 -7.4375 C 5.601562 -7.101562 5.363281 -6.707031 5.09375 -6.25 C 4.820312 -5.800781 4.566406 -5.378906 4.328125 -4.984375 C 4.097656 -4.597656 3.9375 -4.332031 3.84375 -4.1875 C 3.601562 -3.8125 3.3125 -3.363281 2.96875 -2.84375 C 2.625 -2.332031 2.296875 -1.925781 1.984375 -1.625 C 1.679688 -1.351562 1.398438 -1.21875 1.140625 -1.21875 C 0.890625 -1.21875 0.675781 -1.335938 0.5 -1.578125 C 0.320312 -1.828125 0.234375 -2.160156 0.234375 -2.578125 C 0.234375 -2.828125 0.265625 -3.140625 0.328125 -3.515625 C 0.390625 -3.898438 0.484375 -4.28125 0.609375 -4.65625 C 0.742188 -5.03125 0.894531 -5.34375 1.0625 -5.59375 C 1.226562 -5.851562 1.40625 -5.984375 1.59375 -5.984375 C 1.863281 -5.984375 2 -5.882812 2 -5.6875 C 2 -5.5 1.9375 -5.234375 1.8125 -4.890625 C 1.6875 -4.554688 1.554688 -4.148438 1.421875 -3.671875 C 1.296875 -3.191406 1.234375 -2.664062 1.234375 -2.09375 Z M 1.234375 -2.09375 "/></g></g></g><g fill="#303d46" fill-opacity="1"><g transform="translate(191.996105, 183.239813)"><g><path d="M 0.03125 -2.90625 C 0.03125 -3.257812 0.078125 -3.648438 0.171875 -4.078125 C 0.273438 -4.503906 0.410156 -4.921875 0.578125 -5.328125 C 0.742188 -5.734375 0.925781 -6.0625 1.125 -6.3125 C 1.289062 -6.5 1.460938 -6.59375 1.640625 -6.59375 C 1.785156 -6.59375 1.929688 -6.554688 2.078125 -6.484375 C 2.085938 -6.398438 2.101562 -6.34375 2.125 -6.3125 C 2.15625 -6.28125 2.171875 -6.207031 2.171875 -6.09375 C 2.171875 -6.082031 2.097656 -5.929688 1.953125 -5.640625 C 1.804688 -5.359375 1.648438 -5.003906 1.484375 -4.578125 C 1.316406 -4.148438 1.179688 -3.695312 1.078125 -3.21875 C 0.972656 -2.738281 0.972656 -2.300781 1.078125 -1.90625 C 1.265625 -1.96875 1.425781 -2.085938 1.5625 -2.265625 C 1.707031 -2.453125 1.835938 -2.625 1.953125 -2.78125 L 3.390625 -4.890625 C 3.546875 -5.109375 3.675781 -5.300781 3.78125 -5.46875 C 3.894531 -5.632812 4.0625 -5.71875 4.28125 -5.71875 C 4.507812 -5.71875 4.640625 -5.578125 4.671875 -5.296875 C 4.710938 -5.023438 4.722656 -4.710938 4.703125 -4.359375 C 4.679688 -4.015625 4.675781 -3.738281 4.6875 -3.53125 C 4.769531 -2.957031 4.894531 -2.554688 5.0625 -2.328125 C 5.226562 -2.097656 5.421875 -1.984375 5.640625 -1.984375 C 5.910156 -1.984375 6.195312 -2.09375 6.5 -2.3125 C 6.800781 -2.53125 7.101562 -2.785156 7.40625 -3.078125 C 7.707031 -3.378906 7.972656 -3.640625 8.203125 -3.859375 C 8.429688 -4.078125 8.601562 -4.1875 8.71875 -4.1875 C 8.8125 -4.1875 8.898438 -4.164062 8.984375 -4.125 C 9.066406 -4.09375 9.109375 -4.015625 9.109375 -3.890625 C 9.109375 -3.753906 9.007812 -3.578125 8.8125 -3.359375 C 8.625 -3.148438 8.414062 -2.945312 8.1875 -2.75 C 7.96875 -2.550781 7.8125 -2.40625 7.71875 -2.3125 C 7.40625 -2.007812 7.0625 -1.75 6.6875 -1.53125 C 6.3125 -1.320312 5.941406 -1.21875 5.578125 -1.21875 C 5.179688 -1.21875 4.867188 -1.320312 4.640625 -1.53125 C 4.421875 -1.75 4.257812 -2.019531 4.15625 -2.34375 C 4.050781 -2.664062 3.984375 -3.003906 3.953125 -3.359375 C 3.921875 -3.722656 3.90625 -4.050781 3.90625 -4.34375 C 3.8125 -4.269531 3.695312 -4.125 3.5625 -3.90625 C 3.425781 -3.695312 3.316406 -3.53125 3.234375 -3.40625 C 3.140625 -3.25 3.003906 -3.03125 2.828125 -2.75 C 2.660156 -2.46875 2.46875 -2.1875 2.25 -1.90625 C 2.039062 -1.632812 1.828125 -1.398438 1.609375 -1.203125 C 1.390625 -1.015625 1.1875 -0.921875 1 -0.921875 C 0.632812 -0.921875 0.382812 -1.03125 0.25 -1.25 C 0.113281 -1.46875 0.0390625 -1.726562 0.03125 -2.03125 C 0.03125 -2.34375 0.03125 -2.632812 0.03125 -2.90625 Z M 0.03125 -2.90625 "/></g></g></g><g fill="#303d46" fill-opacity="1"><g transform="translate(202.432183, 183.239813)"><g><path d="M 0.28125 3.9375 C 0.28125 4.269531 0.382812 4.4375 0.59375 4.4375 C 0.707031 4.4375 0.828125 4.394531 0.953125 4.3125 C 1.078125 4.226562 1.179688 4.15625 1.265625 4.09375 C 1.578125 3.851562 1.859375 3.488281 2.109375 3 C 2.359375 2.519531 2.535156 2.082031 2.640625 1.6875 C 2.722656 1.414062 2.765625 1.140625 2.765625 0.859375 C 2.773438 0.585938 2.78125 0.285156 2.78125 -0.046875 C 2.59375 0.0664062 2.375 0.257812 2.125 0.53125 C 1.882812 0.8125 1.691406 1.039062 1.546875 1.21875 C 1.265625 1.5625 0.984375 1.976562 0.703125 2.46875 C 0.421875 2.96875 0.28125 3.457031 0.28125 3.9375 Z M 0.078125 -3.859375 C 0.078125 -4.273438 0.1875 -4.644531 0.40625 -4.96875 C 0.625 -5.289062 0.890625 -5.550781 1.203125 -5.75 C 1.515625 -5.945312 1.78125 -6.046875 2 -6.046875 C 2.175781 -6.046875 2.304688 -5.984375 2.390625 -5.859375 C 2.484375 -5.734375 2.488281 -5.519531 2.40625 -5.21875 C 2.21875 -5.164062 2.082031 -5.132812 2 -5.125 C 1.914062 -5.125 1.847656 -5.101562 1.796875 -5.0625 C 1.753906 -5.019531 1.671875 -4.929688 1.546875 -4.796875 C 1.234375 -4.441406 1.085938 -4.15625 1.109375 -3.9375 C 1.128906 -3.726562 1.253906 -3.53125 1.484375 -3.34375 C 1.710938 -3.164062 2 -2.941406 2.34375 -2.671875 C 2.6875 -2.398438 3.007812 -2.035156 3.3125 -1.578125 C 3.664062 -1.816406 4.023438 -2.09375 4.390625 -2.40625 L 6.59375 -3.953125 C 6.800781 -4.097656 6.976562 -4.195312 7.125 -4.25 C 7.28125 -4.3125 7.414062 -4.34375 7.53125 -4.34375 C 7.71875 -4.34375 7.796875 -4.257812 7.765625 -4.09375 C 7.734375 -3.9375 7.582031 -3.78125 7.3125 -3.625 L 5.6875 -2.5 C 5.625 -2.46875 5.488281 -2.375 5.28125 -2.21875 C 5.082031 -2.070312 4.859375 -1.90625 4.609375 -1.71875 C 4.359375 -1.539062 4.144531 -1.375 3.96875 -1.21875 C 3.800781 -1.0625 3.707031 -0.957031 3.6875 -0.90625 C 3.675781 -0.820312 3.703125 -0.671875 3.765625 -0.453125 C 3.828125 -0.234375 3.867188 0.0507812 3.890625 0.40625 C 3.921875 0.769531 3.875 1.207031 3.75 1.71875 C 3.632812 2.238281 3.378906 2.84375 2.984375 3.53125 C 2.628906 4.113281 2.242188 4.539062 1.828125 4.8125 C 1.421875 5.09375 1.035156 5.234375 0.671875 5.234375 C 0.335938 5.234375 0.0664062 5.125 -0.140625 4.90625 C -0.359375 4.6875 -0.46875 4.363281 -0.46875 3.9375 C -0.46875 3.394531 -0.335938 2.867188 -0.078125 2.359375 C 0.179688 1.847656 0.492188 1.378906 0.859375 0.953125 C 1.222656 0.523438 1.554688 0.15625 1.859375 -0.15625 C 2.171875 -0.46875 2.378906 -0.691406 2.484375 -0.828125 C 2.285156 -1.160156 2.050781 -1.453125 1.78125 -1.703125 C 1.507812 -1.953125 1.242188 -2.175781 0.984375 -2.375 C 0.722656 -2.582031 0.503906 -2.800781 0.328125 -3.03125 C 0.160156 -3.269531 0.078125 -3.546875 0.078125 -3.859375 Z M 0.078125 -3.859375 "/></g></g></g><g fill="#303d46" fill-opacity="1"><g transform="translate(211.700873, 183.239813)"><g><path d="M -0.140625 -1.984375 L 0 -4.671875 C 0.0195312 -4.847656 0.0351562 -5.054688 0.046875 -5.296875 C 0.0664062 -5.546875 0.0820312 -5.757812 0.09375 -5.9375 C 0.125 -6.726562 0.222656 -7.507812 0.390625 -8.28125 C 0.554688 -9.0625 0.734375 -9.835938 0.921875 -10.609375 C 1.035156 -10.921875 1.125 -11.128906 1.1875 -11.234375 C 1.25 -11.335938 1.335938 -11.390625 1.453125 -11.390625 C 1.503906 -11.390625 1.5625 -11.382812 1.625 -11.375 C 1.6875 -11.363281 1.753906 -11.351562 1.828125 -11.34375 C 1.910156 -10.976562 1.894531 -10.546875 1.78125 -10.046875 C 1.675781 -9.546875 1.59375 -9.085938 1.53125 -8.671875 C 1.351562 -7.578125 1.207031 -6.367188 1.09375 -5.046875 C 0.976562 -3.734375 0.921875 -2.476562 0.921875 -1.28125 L 1 1.375 L 1.1875 0.921875 C 1.414062 0.285156 1.601562 -0.242188 1.75 -0.671875 C 1.90625 -1.109375 2.082031 -1.539062 2.28125 -1.96875 C 2.476562 -2.40625 2.742188 -2.929688 3.078125 -3.546875 C 3.242188 -3.867188 3.410156 -4.140625 3.578125 -4.359375 C 3.753906 -4.578125 4.015625 -4.6875 4.359375 -4.6875 C 4.535156 -4.6875 4.660156 -4.5625 4.734375 -4.3125 C 4.804688 -4.0625 4.847656 -3.785156 4.859375 -3.484375 C 4.878906 -3.179688 4.890625 -2.957031 4.890625 -2.8125 C 4.890625 -2.363281 4.898438 -1.984375 4.921875 -1.671875 C 4.941406 -1.367188 5.03125 -1.066406 5.1875 -0.765625 C 5.5625 -0.835938 5.875 -1.066406 6.125 -1.453125 C 6.375 -1.847656 6.601562 -2.191406 6.8125 -2.484375 C 6.925781 -2.648438 7.03125 -2.820312 7.125 -3 C 7.21875 -3.175781 7.3125 -3.359375 7.40625 -3.546875 C 7.550781 -3.804688 7.664062 -3.984375 7.75 -4.078125 C 7.84375 -4.171875 7.9375 -4.21875 8.03125 -4.21875 C 8.070312 -4.21875 8.160156 -4.203125 8.296875 -4.171875 C 8.367188 -3.878906 8.347656 -3.644531 8.234375 -3.46875 C 8.128906 -3.300781 8.015625 -3.097656 7.890625 -2.859375 C 7.773438 -2.648438 7.617188 -2.382812 7.421875 -2.0625 C 7.234375 -1.738281 7.019531 -1.421875 6.78125 -1.109375 C 6.550781 -0.796875 6.300781 -0.53125 6.03125 -0.3125 C 5.757812 -0.101562 5.476562 0 5.1875 0 C 4.664062 0 4.328125 -0.46875 4.171875 -1.40625 C 4.117188 -1.675781 4.082031 -2.035156 4.0625 -2.484375 C 4.050781 -2.941406 4.046875 -3.335938 4.046875 -3.671875 C 3.941406 -3.585938 3.804688 -3.398438 3.640625 -3.109375 C 3.484375 -2.828125 3.328125 -2.507812 3.171875 -2.15625 C 3.015625 -1.800781 2.867188 -1.457031 2.734375 -1.125 C 2.597656 -0.789062 2.488281 -0.535156 2.40625 -0.359375 C 2.21875 0.128906 2.0625 0.617188 1.9375 1.109375 C 1.820312 1.609375 1.691406 2.082031 1.546875 2.53125 C 1.460938 2.78125 1.367188 2.941406 1.265625 3.015625 C 1.171875 3.085938 1.007812 3.125 0.78125 3.125 C 0.613281 3.125 0.472656 2.972656 0.359375 2.671875 C 0.242188 2.367188 0.148438 1.988281 0.078125 1.53125 C 0.00390625 1.082031 -0.046875 0.613281 -0.078125 0.125 C -0.109375 -0.351562 -0.125 -0.785156 -0.125 -1.171875 C -0.132812 -1.566406 -0.140625 -1.835938 -0.140625 -1.984375 Z M -0.140625 -1.984375 "/></g></g></g><g fill="#303d46" fill-opacity="1"><g transform="translate(221.350753, 183.239813)"><g><path d="M 0 -2.40625 C 0 -2.738281 0.078125 -3.148438 0.234375 -3.640625 C 0.390625 -4.140625 0.609375 -4.628906 0.890625 -5.109375 C 1.179688 -5.597656 1.515625 -6 1.890625 -6.3125 C 2.265625 -6.632812 2.660156 -6.796875 3.078125 -6.796875 C 3.453125 -6.796875 3.757812 -6.679688 4 -6.453125 C 4.238281 -6.234375 4.378906 -6.007812 4.421875 -5.78125 C 4.472656 -5.550781 4.394531 -5.4375 4.1875 -5.4375 C 4.03125 -5.4375 3.867188 -5.523438 3.703125 -5.703125 C 3.535156 -5.890625 3.34375 -5.984375 3.125 -5.984375 C 2.945312 -5.984375 2.734375 -5.878906 2.484375 -5.671875 C 2.242188 -5.460938 1.945312 -5.054688 1.59375 -4.453125 C 1.4375 -4.203125 1.289062 -3.875 1.15625 -3.46875 C 1.019531 -3.0625 0.953125 -2.660156 0.953125 -2.265625 C 0.984375 -2.296875 0.992188 -2.304688 0.984375 -2.296875 C 0.984375 -2.285156 1.015625 -2.3125 1.078125 -2.375 L 1.265625 -2.671875 C 1.390625 -2.859375 1.535156 -3.101562 1.703125 -3.40625 C 1.867188 -3.707031 2.039062 -4.015625 2.21875 -4.328125 C 2.394531 -4.640625 2.550781 -4.898438 2.6875 -5.109375 C 2.832031 -5.328125 2.945312 -5.4375 3.03125 -5.4375 C 3.3125 -5.4375 3.472656 -5.332031 3.515625 -5.125 C 3.566406 -4.914062 3.585938 -4.660156 3.578125 -4.359375 C 3.578125 -4.054688 3.609375 -3.753906 3.671875 -3.453125 C 3.765625 -3.023438 3.910156 -2.710938 4.109375 -2.515625 C 4.304688 -2.316406 4.535156 -2.21875 4.796875 -2.21875 C 5.234375 -2.21875 5.722656 -2.488281 6.265625 -3.03125 C 6.484375 -3.226562 6.640625 -3.394531 6.734375 -3.53125 C 6.835938 -3.664062 6.96875 -3.820312 7.125 -4 C 7.238281 -4.15625 7.378906 -4.234375 7.546875 -4.234375 C 7.722656 -4.234375 7.800781 -4.085938 7.78125 -3.796875 C 7.757812 -3.503906 7.445312 -3.066406 6.84375 -2.484375 L 6.125 -1.90625 C 5.664062 -1.582031 5.222656 -1.421875 4.796875 -1.421875 C 4.390625 -1.421875 4.039062 -1.539062 3.75 -1.78125 C 3.457031 -2.019531 3.226562 -2.3125 3.0625 -2.65625 C 2.90625 -3.007812 2.828125 -3.351562 2.828125 -3.6875 C 2.722656 -3.613281 2.597656 -3.441406 2.453125 -3.171875 C 2.304688 -2.898438 2.148438 -2.609375 1.984375 -2.296875 C 1.816406 -1.984375 1.644531 -1.710938 1.46875 -1.484375 C 1.300781 -1.253906 1.128906 -1.140625 0.953125 -1.140625 C 0.503906 -1.140625 0.234375 -1.242188 0.140625 -1.453125 C 0.046875 -1.660156 0 -1.976562 0 -2.40625 Z M 0 -2.40625 "/></g></g></g><g fill="#303d46" fill-opacity="1"><g transform="translate(230.643269, 183.239813)"><g/></g></g><g fill="#303d46" fill-opacity="1"><g transform="translate(239.19723, 183.239813)"><g><path d="M -0.234375 1.546875 C -0.234375 0.0351562 -0.109375 -1.445312 0.140625 -2.90625 C 0.398438 -4.363281 0.722656 -5.753906 1.109375 -7.078125 C 1.492188 -8.410156 1.898438 -9.617188 2.328125 -10.703125 C 2.628906 -11.460938 2.992188 -12.265625 3.421875 -13.109375 C 3.859375 -13.960938 4.347656 -14.773438 4.890625 -15.546875 C 5.441406 -16.316406 6.035156 -16.957031 6.671875 -17.46875 C 7.117188 -17.8125 7.609375 -18.101562 8.140625 -18.34375 C 8.671875 -18.582031 9.191406 -18.703125 9.703125 -18.703125 C 10.078125 -18.703125 10.4375 -18.617188 10.78125 -18.453125 C 11.132812 -18.285156 11.445312 -18.019531 11.71875 -17.65625 C 12.082031 -17.132812 12.285156 -16.640625 12.328125 -16.171875 C 12.367188 -15.703125 12.390625 -15.164062 12.390625 -14.5625 C 12.390625 -14.03125 12.304688 -13.4375 12.140625 -12.78125 C 11.984375 -12.125 11.773438 -11.445312 11.515625 -10.75 C 11.253906 -10.050781 10.984375 -9.378906 10.703125 -8.734375 C 10.429688 -8.085938 10.175781 -7.523438 9.9375 -7.046875 C 9.851562 -6.859375 9.78125 -6.710938 9.71875 -6.609375 C 9.65625 -6.503906 9.503906 -6.429688 9.265625 -6.390625 C 9.054688 -6.523438 8.957031 -6.648438 8.96875 -6.765625 C 8.976562 -6.878906 9.039062 -7.046875 9.15625 -7.265625 C 9.21875 -7.441406 9.28125 -7.597656 9.34375 -7.734375 C 9.40625 -7.878906 9.46875 -8.035156 9.53125 -8.203125 C 10.007812 -9.296875 10.453125 -10.414062 10.859375 -11.5625 C 11.265625 -12.71875 11.46875 -13.9375 11.46875 -15.21875 C 11.46875 -16.03125 11.296875 -16.625 10.953125 -17 C 10.617188 -17.375 10.207031 -17.5625 9.71875 -17.5625 C 8.875 -17.5625 8.039062 -17.148438 7.21875 -16.328125 C 6.53125 -15.640625 5.894531 -14.796875 5.3125 -13.796875 C 4.738281 -12.804688 4.222656 -11.742188 3.765625 -10.609375 C 3.304688 -9.472656 2.910156 -8.34375 2.578125 -7.21875 C 2.242188 -6.09375 1.976562 -5.050781 1.78125 -4.09375 C 1.5625 -3.050781 1.375 -1.90625 1.21875 -0.65625 C 1.0625 0.59375 1.003906 1.835938 1.046875 3.078125 C 1.097656 4.328125 1.320312 5.484375 1.71875 6.546875 C 1.925781 7.210938 2.265625 7.796875 2.734375 8.296875 C 3.203125 8.796875 3.816406 9.046875 4.578125 9.046875 C 5.253906 9.046875 5.914062 8.867188 6.5625 8.515625 C 7.21875 8.160156 7.785156 7.800781 8.265625 7.4375 L 9.078125 6.71875 C 9.234375 6.570312 9.375 6.453125 9.5 6.359375 C 9.632812 6.265625 9.78125 6.140625 9.9375 5.984375 C 10.8125 5.085938 11.597656 4.117188 12.296875 3.078125 C 12.992188 2.046875 13.644531 0.96875 14.25 -0.15625 C 14.863281 -1.289062 15.457031 -2.40625 16.03125 -3.5 C 16.175781 -3.769531 16.316406 -3.957031 16.453125 -4.0625 C 16.585938 -4.164062 16.710938 -4.21875 16.828125 -4.21875 C 16.929688 -4.21875 17.015625 -4.175781 17.078125 -4.09375 C 17.148438 -4.019531 17.1875 -3.941406 17.1875 -3.859375 L 13.625 2.625 C 13.40625 2.957031 13.1875 3.28125 12.96875 3.59375 C 12.757812 3.914062 12.535156 4.234375 12.296875 4.546875 C 11.960938 4.992188 11.507812 5.523438 10.9375 6.140625 C 10.363281 6.765625 9.722656 7.375 9.015625 7.96875 C 8.304688 8.5625 7.570312 9.050781 6.8125 9.4375 C 6.050781 9.832031 5.296875 10.03125 4.546875 10.03125 C 3.753906 10.03125 3.078125 9.832031 2.515625 9.4375 C 1.953125 9.050781 1.488281 8.539062 1.125 7.90625 C 0.769531 7.269531 0.492188 6.570312 0.296875 5.8125 C 0.0976562 5.0625 -0.0351562 4.3125 -0.109375 3.5625 C -0.191406 2.820312 -0.234375 2.148438 -0.234375 1.546875 Z M -0.234375 1.546875 "/></g></g></g><g fill="#303d46" fill-opacity="1"><g transform="translate(257.805041, 183.239813)"><g><path d="M 1.1875 -0.546875 C 1.425781 -0.609375 1.640625 -0.816406 1.828125 -1.171875 C 2.023438 -1.535156 2.160156 -1.945312 2.234375 -2.40625 C 2.316406 -2.863281 2.335938 -3.285156 2.296875 -3.671875 C 2.253906 -4.066406 2.132812 -4.335938 1.9375 -4.484375 C 1.882812 -4.304688 1.796875 -4.050781 1.671875 -3.71875 C 1.546875 -3.394531 1.421875 -3.039062 1.296875 -2.65625 C 1.179688 -2.269531 1.101562 -1.890625 1.0625 -1.515625 C 1.019531 -1.140625 1.0625 -0.816406 1.1875 -0.546875 Z M 0 -1.359375 C 0 -1.566406 0.0390625 -1.875 0.125 -2.28125 C 0.21875 -2.6875 0.34375 -3.117188 0.5 -3.578125 C 0.65625 -4.046875 0.832031 -4.488281 1.03125 -4.90625 C 1.226562 -5.332031 1.441406 -5.679688 1.671875 -5.953125 C 1.910156 -6.222656 2.144531 -6.359375 2.375 -6.359375 C 2.539062 -6.359375 2.65625 -6.285156 2.71875 -6.140625 C 2.78125 -6.003906 2.796875 -5.890625 2.765625 -5.796875 C 2.734375 -5.710938 2.671875 -5.628906 2.578125 -5.546875 C 2.492188 -5.472656 2.421875 -5.390625 2.359375 -5.296875 C 2.390625 -5.179688 2.46875 -5.054688 2.59375 -4.921875 C 2.71875 -4.785156 2.84375 -4.601562 2.96875 -4.375 C 3.101562 -4.15625 3.1875 -3.851562 3.21875 -3.46875 C 3.257812 -3.09375 3.21875 -2.597656 3.09375 -1.984375 C 2.914062 -1.148438 2.632812 -0.523438 2.25 -0.109375 C 1.875 0.296875 1.503906 0.5 1.140625 0.5 C 0.835938 0.5 0.570312 0.34375 0.34375 0.03125 C 0.113281 -0.269531 0 -0.734375 0 -1.359375 Z M 0 -1.359375 "/></g></g></g><g fill="#303d46" fill-opacity="1"><g transform="translate(264.381583, 183.239813)"><g><path d="M 0.046875 -1.828125 C 0.046875 -2.628906 0.09375 -3.488281 0.1875 -4.40625 C 0.28125 -5.332031 0.40625 -6.242188 0.5625 -7.140625 C 0.726562 -8.046875 0.90625 -8.867188 1.09375 -9.609375 C 1.175781 -9.835938 1.253906 -10.097656 1.328125 -10.390625 C 1.410156 -10.691406 1.515625 -10.945312 1.640625 -11.15625 C 1.765625 -11.375 1.929688 -11.484375 2.140625 -11.484375 C 2.335938 -11.484375 2.457031 -11.410156 2.5 -11.265625 C 2.550781 -11.128906 2.554688 -10.957031 2.515625 -10.75 C 2.472656 -10.550781 2.421875 -10.367188 2.359375 -10.203125 C 2.296875 -10.035156 2.253906 -9.921875 2.234375 -9.859375 C 2.109375 -9.390625 1.960938 -8.742188 1.796875 -7.921875 C 1.628906 -7.109375 1.46875 -6.210938 1.3125 -5.234375 C 1.164062 -4.265625 1.050781 -3.300781 0.96875 -2.34375 C 0.894531 -1.394531 0.878906 -0.539062 0.921875 0.21875 C 0.972656 0.988281 1.101562 1.582031 1.3125 2 C 1.582031 1.851562 1.800781 1.632812 1.96875 1.34375 C 2.144531 1.0625 2.300781 0.789062 2.4375 0.53125 C 2.800781 -0.175781 3.15625 -0.914062 3.5 -1.6875 C 3.851562 -2.46875 4.21875 -3.203125 4.59375 -3.890625 C 4.726562 -4.140625 4.863281 -4.265625 5 -4.265625 C 5.0625 -4.265625 5.113281 -4.234375 5.15625 -4.171875 C 5.195312 -4.117188 5.21875 -4.0625 5.21875 -4 C 5.21875 -3.957031 5.15625 -3.804688 5.03125 -3.546875 C 4.90625 -3.296875 4.773438 -3.035156 4.640625 -2.765625 C 4.503906 -2.492188 4.410156 -2.316406 4.359375 -2.234375 C 4.203125 -1.898438 4.023438 -1.507812 3.828125 -1.0625 C 3.628906 -0.625 3.429688 -0.191406 3.234375 0.234375 C 3.046875 0.660156 2.863281 1.023438 2.6875 1.328125 C 2.613281 1.460938 2.507812 1.632812 2.375 1.84375 C 2.238281 2.0625 2.085938 2.25 1.921875 2.40625 C 1.765625 2.5625 1.582031 2.640625 1.375 2.640625 C 1.0625 2.640625 0.8125 2.476562 0.625 2.15625 C 0.445312 1.84375 0.316406 1.445312 0.234375 0.96875 C 0.160156 0.5 0.109375 0.0078125 0.078125 -0.5 C 0.0546875 -1.007812 0.046875 -1.453125 0.046875 -1.828125 Z M 0.046875 -1.828125 "/></g></g></g><g fill="#303d46" fill-opacity="1"><g transform="translate(270.958124, 183.239813)"><g><path d="M 0.046875 -1.828125 C 0.046875 -2.628906 0.09375 -3.488281 0.1875 -4.40625 C 0.28125 -5.332031 0.40625 -6.242188 0.5625 -7.140625 C 0.726562 -8.046875 0.90625 -8.867188 1.09375 -9.609375 C 1.175781 -9.835938 1.253906 -10.097656 1.328125 -10.390625 C 1.410156 -10.691406 1.515625 -10.945312 1.640625 -11.15625 C 1.765625 -11.375 1.929688 -11.484375 2.140625 -11.484375 C 2.335938 -11.484375 2.457031 -11.410156 2.5 -11.265625 C 2.550781 -11.128906 2.554688 -10.957031 2.515625 -10.75 C 2.472656 -10.550781 2.421875 -10.367188 2.359375 -10.203125 C 2.296875 -10.035156 2.253906 -9.921875 2.234375 -9.859375 C 2.109375 -9.390625 1.960938 -8.742188 1.796875 -7.921875 C 1.628906 -7.109375 1.46875 -6.210938 1.3125 -5.234375 C 1.164062 -4.265625 1.050781 -3.300781 0.96875 -2.34375 C 0.894531 -1.394531 0.878906 -0.539062 0.921875 0.21875 C 0.972656 0.988281 1.101562 1.582031 1.3125 2 C 1.582031 1.851562 1.800781 1.632812 1.96875 1.34375 C 2.144531 1.0625 2.300781 0.789062 2.4375 0.53125 C 2.800781 -0.175781 3.15625 -0.914062 3.5 -1.6875 C 3.851562 -2.46875 4.21875 -3.203125 4.59375 -3.890625 C 4.726562 -4.140625 4.863281 -4.265625 5 -4.265625 C 5.0625 -4.265625 5.113281 -4.234375 5.15625 -4.171875 C 5.195312 -4.117188 5.21875 -4.0625 5.21875 -4 C 5.21875 -3.957031 5.15625 -3.804688 5.03125 -3.546875 C 4.90625 -3.296875 4.773438 -3.035156 4.640625 -2.765625 C 4.503906 -2.492188 4.410156 -2.316406 4.359375 -2.234375 C 4.203125 -1.898438 4.023438 -1.507812 3.828125 -1.0625 C 3.628906 -0.625 3.429688 -0.191406 3.234375 0.234375 C 3.046875 0.660156 2.863281 1.023438 2.6875 1.328125 C 2.613281 1.460938 2.507812 1.632812 2.375 1.84375 C 2.238281 2.0625 2.085938 2.25 1.921875 2.40625 C 1.765625 2.5625 1.582031 2.640625 1.375 2.640625 C 1.0625 2.640625 0.8125 2.476562 0.625 2.15625 C 0.445312 1.84375 0.316406 1.445312 0.234375 0.96875 C 0.160156 0.5 0.109375 0.0078125 0.078125 -0.5 C 0.0546875 -1.007812 0.046875 -1.453125 0.046875 -1.828125 Z M 0.046875 -1.828125 "/></g></g></g><g fill="#303d46" fill-opacity="1"><g transform="translate(277.534666, 183.239813)"><g><path d="M 1.09375 -4.3125 C 1.394531 -4.46875 1.726562 -4.6875 2.09375 -4.96875 C 2.457031 -5.25 2.65625 -5.578125 2.6875 -5.953125 C 2.476562 -5.921875 2.257812 -5.8125 2.03125 -5.625 C 1.800781 -5.4375 1.601562 -5.222656 1.4375 -4.984375 C 1.269531 -4.742188 1.15625 -4.519531 1.09375 -4.3125 Z M 0.03125 -3.734375 C 0.03125 -4.140625 0.160156 -4.570312 0.421875 -5.03125 C 0.679688 -5.488281 1.003906 -5.878906 1.390625 -6.203125 C 1.785156 -6.535156 2.171875 -6.703125 2.546875 -6.703125 C 3.066406 -6.703125 3.335938 -6.5 3.359375 -6.09375 C 3.390625 -5.695312 3.222656 -5.269531 2.859375 -4.8125 C 2.671875 -4.601562 2.382812 -4.363281 2 -4.09375 C 1.613281 -3.820312 1.238281 -3.671875 0.875 -3.640625 C 0.875 -3.390625 0.878906 -3.164062 0.890625 -2.96875 C 0.910156 -2.769531 1.023438 -2.566406 1.234375 -2.359375 C 1.441406 -2.148438 1.707031 -2.046875 2.03125 -2.046875 C 2.4375 -2.046875 2.863281 -2.175781 3.3125 -2.4375 C 3.757812 -2.695312 4.101562 -2.914062 4.34375 -3.09375 C 4.4375 -3.175781 4.507812 -3.238281 4.5625 -3.28125 C 4.613281 -3.332031 4.679688 -3.390625 4.765625 -3.453125 C 5.097656 -3.710938 5.304688 -3.898438 5.390625 -4.015625 C 5.484375 -4.128906 5.5625 -4.207031 5.625 -4.25 C 5.6875 -4.289062 5.835938 -4.3125 6.078125 -4.3125 C 6.109375 -4.132812 6.117188 -4.015625 6.109375 -3.953125 C 6.097656 -3.890625 6.039062 -3.796875 5.9375 -3.671875 C 5.644531 -3.378906 5.28125 -3.050781 4.84375 -2.6875 C 4.40625 -2.320312 3.9375 -2.003906 3.4375 -1.734375 C 2.9375 -1.460938 2.441406 -1.328125 1.953125 -1.328125 C 1.703125 -1.328125 1.457031 -1.367188 1.21875 -1.453125 C 0.988281 -1.546875 0.773438 -1.695312 0.578125 -1.90625 C 0.285156 -2.1875 0.117188 -2.476562 0.078125 -2.78125 C 0.046875 -3.082031 0.03125 -3.398438 0.03125 -3.734375 Z M 0.03125 -3.734375 "/></g></g></g><g fill="#303d46" fill-opacity="1"><g transform="translate(285.088006, 183.239813)"><g><path d="M 0 -3.265625 C 0 -3.546875 0.0546875 -3.878906 0.171875 -4.265625 C 0.296875 -4.648438 0.460938 -5.023438 0.671875 -5.390625 C 0.890625 -5.753906 1.144531 -6.054688 1.4375 -6.296875 C 1.726562 -6.546875 2.050781 -6.671875 2.40625 -6.671875 C 2.914062 -6.671875 3.171875 -6.351562 3.171875 -5.71875 C 3.171875 -5.300781 3.066406 -5.09375 2.859375 -5.09375 C 2.617188 -5.09375 2.476562 -5.300781 2.4375 -5.71875 C 2.164062 -5.53125 1.90625 -5.203125 1.65625 -4.734375 C 1.40625 -4.273438 1.238281 -3.785156 1.15625 -3.265625 C 1.082031 -2.742188 1.140625 -2.28125 1.328125 -1.875 C 1.410156 -1.675781 1.523438 -1.503906 1.671875 -1.359375 C 1.828125 -1.210938 2.046875 -1.140625 2.328125 -1.140625 C 2.890625 -1.140625 3.40625 -1.296875 3.875 -1.609375 C 4.34375 -1.921875 4.769531 -2.296875 5.15625 -2.734375 C 5.550781 -3.171875 5.890625 -3.585938 6.171875 -3.984375 C 6.347656 -4.222656 6.503906 -4.34375 6.640625 -4.34375 C 6.753906 -4.34375 6.832031 -4.285156 6.875 -4.171875 C 6.925781 -4.054688 6.914062 -3.921875 6.84375 -3.765625 C 6.8125 -3.679688 6.757812 -3.59375 6.6875 -3.5 C 6.613281 -3.40625 6.546875 -3.316406 6.484375 -3.234375 C 6.148438 -2.828125 5.765625 -2.398438 5.328125 -1.953125 C 4.898438 -1.503906 4.429688 -1.125 3.921875 -0.8125 C 3.421875 -0.507812 2.882812 -0.359375 2.3125 -0.359375 C 1.769531 -0.359375 1.328125 -0.492188 0.984375 -0.765625 C 0.640625 -1.046875 0.390625 -1.410156 0.234375 -1.859375 C 0.078125 -2.304688 0 -2.773438 0 -3.265625 Z M 0 -3.265625 "/></g></g></g><g fill="#303d46" fill-opacity="1"><g transform="translate(293.236954, 183.239813)"><g><path d="M -6.703125 -10.625 C -6.703125 -10.832031 -6.507812 -11.050781 -6.125 -11.28125 C -5.738281 -11.507812 -5.253906 -11.734375 -4.671875 -11.953125 C -4.097656 -12.179688 -3.488281 -12.394531 -2.84375 -12.59375 C -2.195312 -12.789062 -1.601562 -12.957031 -1.0625 -13.09375 C -0.53125 -13.238281 -0.128906 -13.351562 0.140625 -13.4375 C 0.472656 -13.53125 0.707031 -13.582031 0.84375 -13.59375 C 0.976562 -13.613281 1.066406 -13.664062 1.109375 -13.75 C 1.148438 -13.84375 1.191406 -14.023438 1.234375 -14.296875 C 1.359375 -14.953125 1.503906 -15.398438 1.671875 -15.640625 C 1.847656 -15.890625 2.015625 -16.015625 2.171875 -16.015625 C 2.296875 -16.015625 2.398438 -15.945312 2.484375 -15.8125 C 2.578125 -15.675781 2.625 -15.515625 2.625 -15.328125 C 2.625 -15.179688 2.613281 -15.117188 2.59375 -15.140625 C 2.582031 -15.160156 2.582031 -15.109375 2.59375 -14.984375 C 2.59375 -14.953125 2.597656 -14.910156 2.609375 -14.859375 C 2.617188 -14.816406 2.625 -14.753906 2.625 -14.671875 C 2.625 -14.472656 2.582031 -14.375 2.5 -14.375 C 2.414062 -14.375 2.332031 -14.359375 2.25 -14.328125 C 2.175781 -14.304688 2.140625 -14.171875 2.140625 -13.921875 C 2.335938 -13.921875 2.550781 -13.945312 2.78125 -14 C 3.007812 -14.050781 3.210938 -14.085938 3.390625 -14.109375 C 4.085938 -14.234375 4.785156 -14.347656 5.484375 -14.453125 C 6.179688 -14.554688 6.894531 -14.609375 7.625 -14.609375 C 8.007812 -14.609375 8.285156 -14.523438 8.453125 -14.359375 C 8.628906 -14.203125 8.691406 -14.046875 8.640625 -13.890625 C 8.597656 -13.734375 8.425781 -13.65625 8.125 -13.65625 C 8.09375 -13.78125 8.070312 -13.835938 8.0625 -13.828125 C 8.050781 -13.816406 7.976562 -13.832031 7.84375 -13.875 C 7.78125 -13.882812 7.648438 -13.890625 7.453125 -13.890625 C 7.117188 -13.890625 6.675781 -13.851562 6.125 -13.78125 C 5.582031 -13.707031 5.015625 -13.625 4.421875 -13.53125 C 3.835938 -13.4375 3.316406 -13.34375 2.859375 -13.25 C 2.398438 -13.164062 2.097656 -13.109375 1.953125 -13.078125 L 1.484375 -8.203125 C 1.460938 -8.085938 1.457031 -7.96875 1.46875 -7.84375 C 1.476562 -7.71875 1.484375 -7.585938 1.484375 -7.453125 C 1.484375 -7.296875 1.46875 -7.191406 1.4375 -7.140625 C 1.414062 -7.097656 1.40625 -6.988281 1.40625 -6.8125 C 1.40625 -6.46875 1.410156 -6.066406 1.421875 -5.609375 C 1.441406 -5.160156 1.4375 -4.804688 1.40625 -4.546875 C 1.382812 -4.410156 1.367188 -4.128906 1.359375 -3.703125 C 1.359375 -3.285156 1.351562 -2.796875 1.34375 -2.234375 C 1.332031 -1.679688 1.328125 -1.125 1.328125 -0.5625 C 1.328125 0 1.328125 0.507812 1.328125 0.96875 C 1.328125 1.4375 1.335938 1.773438 1.359375 1.984375 C 1.359375 2.148438 1.378906 2.410156 1.421875 2.765625 C 1.460938 3.128906 1.46875 3.453125 1.4375 3.734375 C 1.414062 4.023438 1.300781 4.171875 1.09375 4.171875 C 0.789062 4.171875 0.609375 4.003906 0.546875 3.671875 C 0.484375 3.335938 0.453125 3.023438 0.453125 2.734375 C 0.398438 2.160156 0.367188 1.492188 0.359375 0.734375 C 0.359375 -0.0234375 0.359375 -0.785156 0.359375 -1.546875 C 0.367188 -2.304688 0.375 -2.972656 0.375 -3.546875 L 0.453125 -4.671875 C 0.453125 -4.890625 0.453125 -5.226562 0.453125 -5.6875 C 0.453125 -6.15625 0.457031 -6.644531 0.46875 -7.15625 C 0.488281 -7.675781 0.503906 -8.148438 0.515625 -8.578125 C 0.535156 -9.003906 0.5625 -9.304688 0.59375 -9.484375 C 0.625 -9.640625 0.644531 -9.828125 0.65625 -10.046875 C 0.664062 -10.273438 0.675781 -10.46875 0.6875 -10.625 L 0.90625 -12.84375 C 0.84375 -12.820312 0.703125 -12.785156 0.484375 -12.734375 C 0.273438 -12.691406 0.101562 -12.65625 -0.03125 -12.625 C -0.800781 -12.4375 -1.539062 -12.234375 -2.25 -12.015625 C -2.957031 -11.804688 -3.6875 -11.554688 -4.4375 -11.265625 C -4.570312 -11.203125 -4.695312 -11.132812 -4.8125 -11.0625 C -4.9375 -10.988281 -5.070312 -10.921875 -5.21875 -10.859375 C -5.40625 -10.785156 -5.523438 -10.734375 -5.578125 -10.703125 C -5.640625 -10.671875 -5.671875 -10.628906 -5.671875 -10.578125 C -5.671875 -10.535156 -5.710938 -10.429688 -5.796875 -10.265625 C -5.859375 -10.253906 -5.921875 -10.242188 -5.984375 -10.234375 C -6.046875 -10.222656 -6.113281 -10.21875 -6.1875 -10.21875 C -6.320312 -10.21875 -6.441406 -10.242188 -6.546875 -10.296875 C -6.648438 -10.359375 -6.703125 -10.46875 -6.703125 -10.625 Z M -6.703125 -10.625 "/></g></g></g><g fill="#303d46" fill-opacity="1"><g transform="translate(298.384037, 183.239813)"><g><path d="M 1.984375 0.09375 C 1.660156 0.09375 1.375 -0.0078125 1.125 -0.21875 C 0.882812 -0.425781 0.703125 -0.640625 0.578125 -0.859375 C 0.285156 -1.398438 0.117188 -2.039062 0.078125 -2.78125 C 0.046875 -3.519531 0.09375 -4.191406 0.21875 -4.796875 C 0.25 -4.960938 0.289062 -5.171875 0.34375 -5.421875 C 0.394531 -5.671875 0.476562 -5.890625 0.59375 -6.078125 C 0.707031 -6.265625 0.84375 -6.359375 1 -6.359375 C 1.363281 -6.359375 1.539062 -6.234375 1.53125 -5.984375 C 1.53125 -5.742188 1.460938 -5.363281 1.328125 -4.84375 C 1.203125 -4.332031 1.140625 -3.671875 1.140625 -2.859375 C 1.140625 -2.617188 1.171875 -2.332031 1.234375 -2 C 1.296875 -1.664062 1.394531 -1.367188 1.53125 -1.109375 C 1.664062 -0.859375 1.835938 -0.734375 2.046875 -0.734375 C 2.304688 -0.734375 2.597656 -0.84375 2.921875 -1.0625 C 3.242188 -1.289062 3.539062 -1.539062 3.8125 -1.8125 C 4.09375 -2.09375 4.289062 -2.304688 4.40625 -2.453125 C 4.4375 -2.484375 4.523438 -2.585938 4.671875 -2.765625 C 4.816406 -2.953125 4.988281 -3.160156 5.1875 -3.390625 C 5.382812 -3.617188 5.578125 -3.820312 5.765625 -4 C 5.953125 -4.175781 6.101562 -4.265625 6.21875 -4.265625 C 6.332031 -4.265625 6.390625 -4.171875 6.390625 -3.984375 C 6.390625 -3.867188 6.3125 -3.695312 6.15625 -3.46875 C 6.007812 -3.238281 5.832031 -2.992188 5.625 -2.734375 C 5.414062 -2.484375 5.210938 -2.242188 5.015625 -2.015625 C 4.816406 -1.796875 4.671875 -1.640625 4.578125 -1.546875 C 4.378906 -1.359375 4.148438 -1.128906 3.890625 -0.859375 C 3.628906 -0.597656 3.335938 -0.375 3.015625 -0.1875 C 2.703125 0 2.359375 0.09375 1.984375 0.09375 Z M 1.21875 -9.359375 C 1.21875 -9.628906 1.285156 -9.863281 1.421875 -10.0625 C 1.566406 -10.257812 1.726562 -10.359375 1.90625 -10.359375 C 2.09375 -10.359375 2.25 -10.238281 2.375 -10 C 2.601562 -9.5625 2.632812 -9.21875 2.46875 -8.96875 C 2.300781 -8.726562 2.097656 -8.609375 1.859375 -8.609375 C 1.703125 -8.609375 1.554688 -8.671875 1.421875 -8.796875 C 1.285156 -8.921875 1.21875 -9.109375 1.21875 -9.359375 Z M 1.21875 -9.359375 "/></g></g></g><g fill="#303d46" fill-opacity="1"><g transform="translate(306.199447, 183.239813)"><g><path d="M 1.1875 -0.546875 C 1.425781 -0.609375 1.640625 -0.816406 1.828125 -1.171875 C 2.023438 -1.535156 2.160156 -1.945312 2.234375 -2.40625 C 2.316406 -2.863281 2.335938 -3.285156 2.296875 -3.671875 C 2.253906 -4.066406 2.132812 -4.335938 1.9375 -4.484375 C 1.882812 -4.304688 1.796875 -4.050781 1.671875 -3.71875 C 1.546875 -3.394531 1.421875 -3.039062 1.296875 -2.65625 C 1.179688 -2.269531 1.101562 -1.890625 1.0625 -1.515625 C 1.019531 -1.140625 1.0625 -0.816406 1.1875 -0.546875 Z M 0 -1.359375 C 0 -1.566406 0.0390625 -1.875 0.125 -2.28125 C 0.21875 -2.6875 0.34375 -3.117188 0.5 -3.578125 C 0.65625 -4.046875 0.832031 -4.488281 1.03125 -4.90625 C 1.226562 -5.332031 1.441406 -5.679688 1.671875 -5.953125 C 1.910156 -6.222656 2.144531 -6.359375 2.375 -6.359375 C 2.539062 -6.359375 2.65625 -6.285156 2.71875 -6.140625 C 2.78125 -6.003906 2.796875 -5.890625 2.765625 -5.796875 C 2.734375 -5.710938 2.671875 -5.628906 2.578125 -5.546875 C 2.492188 -5.472656 2.421875 -5.390625 2.359375 -5.296875 C 2.390625 -5.179688 2.46875 -5.054688 2.59375 -4.921875 C 2.71875 -4.785156 2.84375 -4.601562 2.96875 -4.375 C 3.101562 -4.15625 3.1875 -3.851562 3.21875 -3.46875 C 3.257812 -3.09375 3.21875 -2.597656 3.09375 -1.984375 C 2.914062 -1.148438 2.632812 -0.523438 2.25 -0.109375 C 1.875 0.296875 1.503906 0.5 1.140625 0.5 C 0.835938 0.5 0.570312 0.34375 0.34375 0.03125 C 0.113281 -0.269531 0 -0.734375 0 -1.359375 Z M 0 -1.359375 "/></g></g></g><g fill="#303d46" fill-opacity="1"><g transform="translate(312.775989, 183.239813)"><g><path d="M 0.671875 -1.234375 C 0.367188 -1.234375 0.171875 -1.414062 0.078125 -1.78125 C -0.00390625 -2.144531 -0.015625 -2.601562 0.046875 -3.15625 C 0.109375 -3.707031 0.222656 -4.253906 0.390625 -4.796875 C 0.554688 -5.347656 0.742188 -5.804688 0.953125 -6.171875 C 1.160156 -6.535156 1.351562 -6.71875 1.53125 -6.71875 C 1.800781 -6.71875 1.925781 -6.59375 1.90625 -6.34375 C 1.882812 -6.101562 1.800781 -5.78125 1.65625 -5.375 C 1.519531 -4.96875 1.378906 -4.519531 1.234375 -4.03125 C 1.097656 -3.550781 1.03125 -3.082031 1.03125 -2.625 L 2.171875 -4.359375 C 2.210938 -4.453125 2.3125 -4.617188 2.46875 -4.859375 C 2.632812 -5.097656 2.816406 -5.320312 3.015625 -5.53125 C 3.210938 -5.738281 3.40625 -5.84375 3.59375 -5.84375 C 3.789062 -5.84375 3.941406 -5.710938 4.046875 -5.453125 L 4.1875 -4.125 C 4.1875 -3.976562 4.191406 -3.753906 4.203125 -3.453125 C 4.222656 -3.148438 4.257812 -2.84375 4.3125 -2.53125 C 4.375 -2.226562 4.46875 -1.960938 4.59375 -1.734375 C 4.726562 -1.515625 4.90625 -1.40625 5.125 -1.40625 C 5.363281 -1.40625 5.613281 -1.546875 5.875 -1.828125 C 6.132812 -2.117188 6.382812 -2.453125 6.625 -2.828125 C 6.875 -3.203125 7.097656 -3.53125 7.296875 -3.8125 C 7.492188 -4.09375 7.648438 -4.234375 7.765625 -4.234375 C 8.003906 -4.234375 8.113281 -4.140625 8.09375 -3.953125 C 8.082031 -3.773438 8.003906 -3.566406 7.859375 -3.328125 C 7.722656 -3.097656 7.578125 -2.878906 7.421875 -2.671875 C 7.273438 -2.460938 7.179688 -2.332031 7.140625 -2.28125 C 7.035156 -2.144531 6.882812 -1.960938 6.6875 -1.734375 C 6.5 -1.515625 6.300781 -1.304688 6.09375 -1.109375 C 5.894531 -0.921875 5.695312 -0.804688 5.5 -0.765625 C 5.34375 -0.710938 5.191406 -0.6875 5.046875 -0.6875 C 4.679688 -0.6875 4.390625 -0.820312 4.171875 -1.09375 C 3.960938 -1.363281 3.800781 -1.660156 3.6875 -1.984375 C 3.53125 -2.453125 3.441406 -2.875 3.421875 -3.25 C 3.410156 -3.625 3.410156 -3.941406 3.421875 -4.203125 C 3.441406 -4.460938 3.410156 -4.664062 3.328125 -4.8125 C 3.140625 -4.6875 2.9375 -4.429688 2.71875 -4.046875 C 2.507812 -3.671875 2.289062 -3.265625 2.0625 -2.828125 C 1.832031 -2.390625 1.601562 -2.015625 1.375 -1.703125 C 1.144531 -1.390625 0.910156 -1.234375 0.671875 -1.234375 Z M 0.671875 -1.234375 "/></g></g></g><g fill="#ff3755" fill-opacity="1"><g transform="translate(165.121204, 205.957515)"><g><path d="M 2.640625 -4.609375 C 2.960938 -4.609375 3.273438 -4.546875 3.578125 -4.421875 C 3.890625 -4.296875 4.160156 -4.125 4.390625 -3.90625 L 3.9375 -3.34375 C 3.769531 -3.519531 3.570312 -3.660156 3.34375 -3.765625 C 3.113281 -3.867188 2.882812 -3.921875 2.65625 -3.921875 C 2.195312 -3.921875 1.804688 -3.765625 1.484375 -3.453125 C 1.171875 -3.140625 1.015625 -2.757812 1.015625 -2.3125 C 1.015625 -1.851562 1.171875 -1.46875 1.484375 -1.15625 C 1.804688 -0.84375 2.195312 -0.6875 2.65625 -0.6875 C 3.125 -0.6875 3.550781 -0.867188 3.9375 -1.234375 L 4.390625 -0.71875 C 4.148438 -0.488281 3.875 -0.304688 3.5625 -0.171875 C 3.25 -0.0351562 2.929688 0.03125 2.609375 0.03125 C 1.929688 0.03125 1.363281 -0.191406 0.90625 -0.640625 C 0.445312 -1.085938 0.21875 -1.640625 0.21875 -2.296875 C 0.21875 -2.953125 0.453125 -3.5 0.921875 -3.9375 C 1.390625 -4.382812 1.960938 -4.609375 2.640625 -4.609375 Z M 2.640625 -4.609375 "/></g></g></g><g fill="#ff3755" fill-opacity="1"><g transform="translate(173.03794, 205.957515)"><g><path d="M 0.921875 -3.9375 C 1.390625 -4.382812 1.96875 -4.609375 2.65625 -4.609375 C 3.34375 -4.609375 3.921875 -4.382812 4.390625 -3.9375 C 4.859375 -3.5 5.09375 -2.953125 5.09375 -2.296875 C 5.09375 -1.640625 4.859375 -1.085938 4.390625 -0.640625 C 3.921875 -0.191406 3.34375 0.03125 2.65625 0.03125 C 1.96875 0.03125 1.390625 -0.191406 0.921875 -0.640625 C 0.453125 -1.085938 0.21875 -1.640625 0.21875 -2.296875 C 0.21875 -2.953125 0.453125 -3.5 0.921875 -3.9375 Z M 2.671875 -3.921875 C 2.210938 -3.921875 1.820312 -3.765625 1.5 -3.453125 C 1.175781 -3.140625 1.015625 -2.753906 1.015625 -2.296875 C 1.015625 -1.835938 1.175781 -1.445312 1.5 -1.125 C 1.820312 -0.8125 2.207031 -0.65625 2.65625 -0.65625 C 3.113281 -0.65625 3.5 -0.8125 3.8125 -1.125 C 4.132812 -1.445312 4.296875 -1.835938 4.296875 -2.296875 C 4.296875 -2.753906 4.132812 -3.140625 3.8125 -3.453125 C 3.5 -3.765625 3.117188 -3.921875 2.671875 -3.921875 Z M 2.671875 -3.921875 "/></g></g></g><g fill="#ff3755" fill-opacity="1"><g transform="translate(181.696458, 205.957515)"><g><path d="M 5.453125 0 L 4.75 0 L 4.734375 -3.4375 L 3.28125 -0.484375 L 2.78125 -0.484375 L 1.328125 -3.4375 L 1.328125 0 L 0.609375 0 L 0.609375 -4.59375 L 1.515625 -4.59375 L 3.03125 -1.546875 L 4.546875 -4.59375 L 5.453125 -4.59375 Z M 5.453125 0 "/></g></g></g><g fill="#ff3755" fill-opacity="1"><g transform="translate(191.109895, 205.957515)"><g><path d="M 0.609375 -4.59375 L 2.4375 -4.59375 C 3.007812 -4.59375 3.453125 -4.453125 3.765625 -4.171875 C 4.085938 -3.898438 4.25 -3.519531 4.25 -3.03125 C 4.25 -2.507812 4.085938 -2.101562 3.765625 -1.8125 C 3.453125 -1.53125 3.007812 -1.390625 2.4375 -1.390625 L 1.375 -1.390625 L 1.375 0 L 0.609375 0 Z M 1.375 -3.890625 L 1.375 -2.078125 L 2.40625 -2.078125 C 3.144531 -2.078125 3.515625 -2.382812 3.515625 -3 C 3.515625 -3.59375 3.144531 -3.890625 2.40625 -3.890625 Z M 1.375 -3.890625 "/></g></g></g><g fill="#ff3755" fill-opacity="1"><g transform="translate(198.869081, 205.957515)"><g><path d="M 1.375 -0.703125 L 3.359375 -0.703125 L 3.359375 0 L 0.609375 0 L 0.609375 -4.59375 L 1.375 -4.59375 Z M 1.375 -0.703125 "/></g></g></g><g fill="#ff3755" fill-opacity="1"><g transform="translate(205.715811, 205.957515)"><g><path d="M 3.890625 -3.890625 L 1.375 -3.890625 L 1.375 -2.65625 L 3.625 -2.65625 L 3.625 -1.96875 L 1.375 -1.96875 L 1.375 -0.703125 L 3.96875 -0.703125 L 3.96875 0 L 0.609375 0 L 0.609375 -4.59375 L 3.890625 -4.59375 Z M 3.890625 -3.890625 "/></g></g></g><g fill="#ff3755" fill-opacity="1"><g transform="translate(213.363404, 205.957515)"><g><path d="M 3.734375 -3.890625 L 2.28125 -3.890625 L 2.28125 0 L 1.515625 0 L 1.515625 -3.890625 L 0.0625 -3.890625 L 0.0625 -4.59375 L 3.734375 -4.59375 Z M 3.734375 -3.890625 "/></g></g></g><g fill="#ff3755" fill-opacity="1"><g transform="translate(220.505529, 205.957515)"><g><path d="M 3.890625 -3.890625 L 1.375 -3.890625 L 1.375 -2.65625 L 3.625 -2.65625 L 3.625 -1.96875 L 1.375 -1.96875 L 1.375 -0.703125 L 3.96875 -0.703125 L 3.96875 0 L 0.609375 0 L 0.609375 -4.59375 L 3.890625 -4.59375 Z M 3.890625 -3.890625 "/></g></g></g><g fill="#ff3755" fill-opacity="1"><g transform="translate(228.153122, 205.957515)"><g/></g></g><g fill="#ff3755" fill-opacity="1"><g transform="translate(233.188054, 205.957515)"><g><path d="M 3.6875 -3.890625 L 1.375 -3.890625 L 1.375 -2.578125 L 3.46875 -2.578125 L 3.46875 -1.890625 L 1.375 -1.890625 L 1.375 0 L 0.609375 0 L 0.609375 -4.59375 L 3.6875 -4.59375 Z M 3.6875 -3.890625 "/></g></g></g><g fill="#ff3755" fill-opacity="1"><g transform="translate(240.303924, 205.957515)"><g><path d="M 3.890625 -3.890625 L 1.375 -3.890625 L 1.375 -2.65625 L 3.625 -2.65625 L 3.625 -1.96875 L 1.375 -1.96875 L 1.375 -0.703125 L 3.96875 -0.703125 L 3.96875 0 L 0.609375 0 L 0.609375 -4.59375 L 3.890625 -4.59375 Z M 3.890625 -3.890625 "/></g></g></g><g fill="#ff3755" fill-opacity="1"><g transform="translate(247.951517, 205.957515)"><g><path d="M 2.109375 -4.625 C 2.703125 -4.625 3.238281 -4.46875 3.71875 -4.15625 L 3.40625 -3.46875 C 2.9375 -3.75 2.484375 -3.890625 2.046875 -3.890625 C 1.816406 -3.890625 1.632812 -3.847656 1.5 -3.765625 C 1.375 -3.691406 1.3125 -3.578125 1.3125 -3.421875 C 1.3125 -3.265625 1.367188 -3.132812 1.484375 -3.03125 C 1.609375 -2.925781 1.757812 -2.847656 1.9375 -2.796875 C 2.125 -2.742188 2.328125 -2.675781 2.546875 -2.59375 C 2.765625 -2.519531 2.960938 -2.441406 3.140625 -2.359375 C 3.328125 -2.273438 3.476562 -2.140625 3.59375 -1.953125 C 3.71875 -1.773438 3.78125 -1.554688 3.78125 -1.296875 C 3.78125 -0.898438 3.617188 -0.578125 3.296875 -0.328125 C 2.972656 -0.0859375 2.554688 0.03125 2.046875 0.03125 C 1.691406 0.03125 1.347656 -0.0351562 1.015625 -0.171875 C 0.691406 -0.304688 0.410156 -0.484375 0.171875 -0.703125 L 0.5 -1.375 C 0.738281 -1.15625 0.992188 -0.988281 1.265625 -0.875 C 1.546875 -0.757812 1.8125 -0.703125 2.0625 -0.703125 C 2.332031 -0.703125 2.539062 -0.75 2.6875 -0.84375 C 2.84375 -0.945312 2.921875 -1.085938 2.921875 -1.265625 C 2.921875 -1.421875 2.859375 -1.550781 2.734375 -1.65625 C 2.609375 -1.757812 2.453125 -1.835938 2.265625 -1.890625 C 2.085938 -1.941406 1.890625 -2.003906 1.671875 -2.078125 C 1.460938 -2.148438 1.265625 -2.222656 1.078125 -2.296875 C 0.898438 -2.378906 0.75 -2.507812 0.625 -2.6875 C 0.5 -2.875 0.4375 -3.09375 0.4375 -3.34375 C 0.4375 -3.738281 0.585938 -4.050781 0.890625 -4.28125 C 1.203125 -4.507812 1.609375 -4.625 2.109375 -4.625 Z M 2.109375 -4.625 "/></g></g></g><g fill="#ff3755" fill-opacity="1"><g transform="translate(255.375917, 205.957515)"><g><path d="M 3.734375 -3.890625 L 2.28125 -3.890625 L 2.28125 0 L 1.515625 0 L 1.515625 -3.890625 L 0.0625 -3.890625 L 0.0625 -4.59375 L 3.734375 -4.59375 Z M 3.734375 -3.890625 "/></g></g></g><g fill="#ff3755" fill-opacity="1"><g transform="translate(262.518042, 205.957515)"><g><path d="M 1.375 0 L 0.609375 0 L 0.609375 -4.59375 L 1.375 -4.59375 Z M 1.375 0 "/></g></g></g><g fill="#ff3755" fill-opacity="1"><g transform="translate(267.841809, 205.957515)"><g><path d="M 2.65625 0 L 1.84375 0 L 0.015625 -4.59375 L 0.859375 -4.59375 L 2.265625 -0.859375 L 3.703125 -4.59375 L 4.515625 -4.59375 Z M 2.65625 0 "/></g></g></g><g fill="#ff3755" fill-opacity="1"><g transform="translate(275.712596, 205.957515)"><g><path d="M 3.890625 -3.890625 L 1.375 -3.890625 L 1.375 -2.65625 L 3.625 -2.65625 L 3.625 -1.96875 L 1.375 -1.96875 L 1.375 -0.703125 L 3.96875 -0.703125 L 3.96875 0 L 0.609375 0 L 0.609375 -4.59375 L 3.890625 -4.59375 Z M 3.890625 -3.890625 "/></g></g></g><g fill="#ff3755" fill-opacity="1"><g transform="translate(283.360189, 205.957515)"><g/></g></g><g fill="#ff3755" fill-opacity="1"><g transform="translate(288.395121, 205.957515)"><g><path d="M 5.328125 0 L 4.53125 0 L 3.4375 -3.578125 L 2.34375 0 L 1.546875 0 L 0.015625 -4.59375 L 0.859375 -4.59375 L 1.96875 -0.859375 L 3.078125 -4.59375 L 3.84375 -4.59375 L 4.953125 -0.859375 L 6.0625 -4.59375 L 6.859375 -4.59375 Z M 5.328125 0 "/></g></g></g><g fill="#ff3755" fill-opacity="1"><g transform="translate(298.537213, 205.957515)"><g><path d="M 3.890625 -3.890625 L 1.375 -3.890625 L 1.375 -2.65625 L 3.625 -2.65625 L 3.625 -1.96875 L 1.375 -1.96875 L 1.375 -0.703125 L 3.96875 -0.703125 L 3.96875 0 L 0.609375 0 L 0.609375 -4.59375 L 3.890625 -4.59375 Z M 3.890625 -3.890625 "/></g></g></g><g fill="#ff3755" fill-opacity="1"><g transform="translate(306.184798, 205.957515)"><g><path d="M 3.5625 -1.03125 L 1.25 -1.03125 L 0.8125 0 L 0 0 L 2.03125 -4.59375 L 2.828125 -4.59375 L 4.84375 0 L 4.015625 0 Z M 3.28125 -1.71875 L 2.40625 -3.765625 L 1.546875 -1.71875 Z M 3.28125 -1.71875 "/></g></g></g><g fill="#ff3755" fill-opacity="1"><g transform="translate(314.37067, 205.957515)"><g><path d="M 3.515625 0 L 2.671875 -1.390625 C 2.628906 -1.390625 2.5625 -1.390625 2.46875 -1.390625 L 1.375 -1.390625 L 1.375 0 L 0.609375 0 L 0.609375 -4.59375 L 2.46875 -4.59375 C 3.050781 -4.59375 3.503906 -4.453125 3.828125 -4.171875 C 4.148438 -3.898438 4.3125 -3.519531 4.3125 -3.03125 C 4.3125 -2.65625 4.226562 -2.34375 4.0625 -2.09375 C 3.90625 -1.84375 3.671875 -1.65625 3.359375 -1.53125 L 4.390625 0 Z M 1.375 -2.078125 L 2.46875 -2.078125 C 3.207031 -2.078125 3.578125 -2.382812 3.578125 -3 C 3.578125 -3.59375 3.207031 -3.890625 2.46875 -3.890625 L 1.375 -3.890625 Z M 1.375 -2.078125 "/></g></g></g></svg>